<mxfile host="app.diagrams.net" modified="2022-02-12T07:08:05.793Z" agent="5.0 (Windows)" etag="SnL-83hDXFb7wH-_m3nz" version="16.5.6" type="github">
  <diagram name="Page-1" id="7e0a89b8-554c-2b80-1dc8-d5c74ca68de4">
    <mxGraphModel dx="2062" dy="1150" grid="1" gridSize="10" guides="1" tooltips="1" connect="1" arrows="1" fold="1" page="1" pageScale="1" pageWidth="1100" pageHeight="850" background="none" math="0" shadow="0">
      <root>
        <mxCell id="0" />
        <mxCell id="1" parent="0" />
        <mxCell id="SErEzi4ScyLlZOu_YYUY-1" value="&lt;b&gt;&lt;font style=&quot;font-size: 24px&quot;&gt;32.7kHz&lt;/font&gt;&lt;/b&gt;" style="pointerEvents=1;verticalLabelPosition=bottom;shadow=0;dashed=0;align=center;html=1;verticalAlign=top;shape=mxgraph.electrical.signal_sources.source;aspect=fixed;points=[[0.5,0,0],[1,0.5,0],[0.5,1,0],[0,0.5,0]];elSignalType=square;strokeWidth=2;" vertex="1" parent="1">
          <mxGeometry x="30" y="280" width="60" height="60" as="geometry" />
        </mxCell>
        <mxCell id="SErEzi4ScyLlZOu_YYUY-2" value="&lt;div&gt;&lt;b&gt;LPF&lt;/b&gt;&lt;/div&gt;&lt;div&gt;&lt;b&gt;(&lt;i&gt;f&lt;sub&gt;c&lt;/sub&gt;&lt;/i&gt;=31.2kHz,&lt;/b&gt;&lt;/div&gt;&lt;div&gt;&lt;b&gt;33.9kHz)&lt;br&gt;&lt;/b&gt;&lt;/div&gt;" style="rounded=0;whiteSpace=wrap;html=1;fontSize=24;strokeWidth=2;" vertex="1" parent="1">
          <mxGeometry x="140" y="250" width="150" height="120" as="geometry" />
        </mxCell>
        <mxCell id="SErEzi4ScyLlZOu_YYUY-4" value="" style="endArrow=none;html=1;rounded=0;fontSize=24;strokeWidth=2;exitX=1;exitY=0.5;exitDx=0;exitDy=0;exitPerimeter=0;entryX=0;entryY=0.5;entryDx=0;entryDy=0;" edge="1" parent="1" source="SErEzi4ScyLlZOu_YYUY-1" target="SErEzi4ScyLlZOu_YYUY-2">
          <mxGeometry width="50" height="50" relative="1" as="geometry">
            <mxPoint x="90" y="450" as="sourcePoint" />
            <mxPoint x="140" y="400" as="targetPoint" />
          </mxGeometry>
        </mxCell>
        <mxCell id="SErEzi4ScyLlZOu_YYUY-6" value="" style="endArrow=none;html=1;rounded=0;fontSize=24;strokeWidth=2;entryX=1;entryY=0.5;entryDx=0;entryDy=0;" edge="1" parent="1" target="SErEzi4ScyLlZOu_YYUY-2">
          <mxGeometry width="50" height="50" relative="1" as="geometry">
            <mxPoint x="350" y="310" as="sourcePoint" />
            <mxPoint x="150" y="320" as="targetPoint" />
          </mxGeometry>
        </mxCell>
        <mxCell id="SErEzi4ScyLlZOu_YYUY-7" value="" style="endArrow=none;html=1;rounded=0;fontSize=24;strokeWidth=2;startArrow=none;" edge="1" parent="1" source="SErEzi4ScyLlZOu_YYUY-5">
          <mxGeometry width="50" height="50" relative="1" as="geometry">
            <mxPoint x="350" y="410" as="sourcePoint" />
            <mxPoint x="350" y="210" as="targetPoint" />
          </mxGeometry>
        </mxCell>
        <mxCell id="SErEzi4ScyLlZOu_YYUY-8" value="" style="endArrow=none;html=1;rounded=0;fontSize=24;strokeWidth=2;" edge="1" parent="1">
          <mxGeometry width="50" height="50" relative="1" as="geometry">
            <mxPoint x="960" y="415.75" as="sourcePoint" />
            <mxPoint x="350" y="415.75" as="targetPoint" />
          </mxGeometry>
        </mxCell>
        <mxCell id="SErEzi4ScyLlZOu_YYUY-9" value="" style="endArrow=none;html=1;rounded=0;fontSize=24;strokeWidth=2;entryX=1;entryY=0.5;entryDx=0;entryDy=0;" edge="1" parent="1">
          <mxGeometry width="50" height="50" relative="1" as="geometry">
            <mxPoint x="960" y="204.5" as="sourcePoint" />
            <mxPoint x="350" y="204.5" as="targetPoint" />
          </mxGeometry>
        </mxCell>
        <mxCell id="SErEzi4ScyLlZOu_YYUY-10" value="" style="shape=ext;double=1;rounded=0;whiteSpace=wrap;html=1;fontSize=24;strokeWidth=2;" vertex="1" parent="1">
          <mxGeometry x="410" y="396.25" width="70" height="50" as="geometry" />
        </mxCell>
        <mxCell id="SErEzi4ScyLlZOu_YYUY-11" value="&lt;b&gt;包絡線検波回路&lt;br&gt;&lt;/b&gt;" style="rounded=0;whiteSpace=wrap;html=1;fontSize=24;strokeWidth=2;" vertex="1" parent="1">
          <mxGeometry x="550" y="381.25" width="130" height="70" as="geometry" />
        </mxCell>
        <mxCell id="SErEzi4ScyLlZOu_YYUY-13" value="&lt;b&gt;包絡線検波回路&lt;br&gt;&lt;/b&gt;" style="rounded=0;whiteSpace=wrap;html=1;fontSize=24;strokeWidth=2;" vertex="1" parent="1">
          <mxGeometry x="550" y="170" width="130" height="70" as="geometry" />
        </mxCell>
        <mxCell id="SErEzi4ScyLlZOu_YYUY-5" value="" style="shape=waypoint;sketch=0;fillStyle=solid;size=6;pointerEvents=1;points=[];fillColor=none;resizable=0;rotatable=0;perimeter=centerPerimeter;snapToPoint=1;fontSize=24;strokeWidth=2;" vertex="1" parent="1">
          <mxGeometry x="330" y="290" width="40" height="40" as="geometry" />
        </mxCell>
        <mxCell id="SErEzi4ScyLlZOu_YYUY-14" value="" style="endArrow=none;html=1;rounded=0;fontSize=24;strokeWidth=2;" edge="1" parent="1" target="SErEzi4ScyLlZOu_YYUY-5">
          <mxGeometry width="50" height="50" relative="1" as="geometry">
            <mxPoint x="350" y="410" as="sourcePoint" />
            <mxPoint x="350" y="210" as="targetPoint" />
          </mxGeometry>
        </mxCell>
        <mxCell id="SErEzi4ScyLlZOu_YYUY-15" value="&lt;div&gt;&lt;b&gt;LPF&lt;/b&gt;&lt;/div&gt;&lt;div&gt;&lt;b&gt;(&lt;i&gt;f&lt;sub&gt;c&lt;/sub&gt;&lt;/i&gt;=14.3Hz)&lt;br&gt;&lt;/b&gt;&lt;/div&gt;" style="rounded=0;whiteSpace=wrap;html=1;fontSize=24;strokeWidth=2;" vertex="1" parent="1">
          <mxGeometry x="750" y="167.5" width="150" height="72.5" as="geometry" />
        </mxCell>
        <mxCell id="SErEzi4ScyLlZOu_YYUY-16" value="&lt;div&gt;&lt;b&gt;LPF&lt;/b&gt;&lt;/div&gt;&lt;div&gt;&lt;b&gt;(&lt;i&gt;f&lt;sub&gt;c&lt;/sub&gt;&lt;/i&gt;=14.3Hz)&lt;br&gt;&lt;/b&gt;&lt;/div&gt;" style="rounded=0;whiteSpace=wrap;html=1;fontSize=24;strokeWidth=2;" vertex="1" parent="1">
          <mxGeometry x="750" y="380" width="150" height="72.5" as="geometry" />
        </mxCell>
        <mxCell id="SErEzi4ScyLlZOu_YYUY-17" value="&lt;b&gt;IMPOUT1&lt;/b&gt;" style="shape=mxgraph.arrows2.arrow;verticalLabelPosition=bottom;shadow=0;dashed=0;align=center;html=1;verticalAlign=top;strokeWidth=2;dy=0;dx=10;notch=0;fontSize=24;spacingLeft=-5;spacing=2;spacingTop=-35;" vertex="1" parent="1">
          <mxGeometry x="950" y="190" width="130" height="30" as="geometry" />
        </mxCell>
        <mxCell id="SErEzi4ScyLlZOu_YYUY-19" value="&lt;b&gt;IMPOUT2&lt;/b&gt;" style="shape=mxgraph.arrows2.arrow;verticalLabelPosition=bottom;shadow=0;dashed=0;align=center;html=1;verticalAlign=top;strokeWidth=2;dy=0;dx=10;notch=0;fontSize=24;spacingLeft=-5;spacing=2;spacingTop=-35;" vertex="1" parent="1">
          <mxGeometry x="960" y="401.25" width="130" height="30" as="geometry" />
        </mxCell>
      </root>
    </mxGraphModel>
  </diagram>
</mxfile>
